#!OML:ASF F:\VICON\USERDATA\INSTALL\rory3\rory3.ASF
:FULLY-SPECIFIED
:DEGREES
253
root -0.840623 18.8691 -2.42408 -64.7814 -82.6485 83.2296
lowerback 14.7933 0.892549 2.73211
upperback 6.72212 1.22476 4.74918
thorax -1.22138 0.414806 3.24985
lowerneck -2.98813 -12.344 -9.12521
upperneck 12.29 -17.6663 11.2948
head 6.02759 -8.42369 3.66948
rclavicle -7.95139e-015 -1.59028e-015
rhumerus 16.8875 -9.04065 -76.9135
rradius 22.4067
rwrist 38.0613
rhand -47.7383 -26.5906
rfingers 7.12502
rthumb -20.4169 -55.5372
lclavicle -7.95139e-015 -1.59028e-015
lhumerus 1.03571 -42.9252 93.4863
lradius 95.6159
lwrist 42.8746
lhand -38.2465 18.8543
lfingers 7.12502
lthumb -11.277 48.5312
rfemur -34.0295 20.2039 4.23346
rtibia 29.9447
rfoot -18.5924 -24.226
rtoes 3.12583
lfemur -29.6358 -10.3598 -20.8562
ltibia 12.5581
lfoot 0.856065 7.49996
ltoes -10.7963
254
root -0.859155 18.8694 -2.40409 -66.222 -82.6985 84.6218
lowerback 14.8044 0.966876 2.80022
upperback 6.75144 1.32576 4.83729
thorax -1.19983 0.462284 3.28896
lowerneck -2.85957 -12.3388 -9.07321
upperneck 12.212 -17.6349 11.1207
head 5.9571 -8.42238 3.62352
rclavicle -2.70347e-014 1.59028e-015
rhumerus 16.8047 -8.05089 -76.5808
rradius 22.2739
rwrist 37.2586
rhand -47.4155 -26.9311
rfingers 7.12502
rthumb -20.1067 -55.9107
lclavicle -2.70347e-014 1.59028e-015
lhumerus 0.887476 -43.1002 93.0635
lradius 95.9886
lwrist 42.8152
lhand -38.6975 19.0437
lfingers 7.12502
lthumb -11.7119 48.6963
rfemur -33.9654 19.9626 4.32338
rtibia 30.0299
rfoot -18.515 -23.8817
rtoes 2.75996
lfemur -29.519 -10.3108 -20.9305
ltibia 12.6676
lfoot 0.541901 7.60974
ltoes -9.66302
255
root -0.874763 18.8673 -2.38247 -67.3946 -82.8022 85.7129
lowerback 14.864 1.04701 3.00146
upperback 6.78417 1.45269 4.89486
thorax -1.19671 0.525086 3.21617
lowerneck -2.80299 -12.3546 -8.85837
upperneck 12.2178 -17.6356 10.8546
head 5.90544 -8.4298 3.51728
rclavicle -9.54166e-015 -6.67916e-014
rhumerus 16.7162 -7.61369 -76.5542
rradius 22.2345
rwrist 36.9723
rhand -47.3058 -26.9539
rfingers 7.12502
rthumb -20.0012 -55.9445
lclavicle -9.54166e-015 -6.67916e-014
lhumerus 0.600302 -43.109 92.8286
lradius 96.3966
lwrist 42.7736
lhand -38.8321 19.4676
lfingers 7.12502
lthumb -11.8417 49.1127
rfemur -33.8984 19.8359 4.45263
rtibia 30.1151
rfoot -18.5278 -23.6492
rtoes 2.60286
lfemur -29.4016 -10.1539 -21.0039
ltibia 12.7879
lfoot 0.379245 7.60831
ltoes -9.07773
256
root -0.891463 18.866 -2.36218 -69.1916 -82.7889 87.417
lowerback 14.9084 1.14448 3.04943
upperback 6.86205 1.57732 4.91598
thorax -1.14118 0.584553 3.19222
lowerneck -2.87969 -12.3762 -8.71355
upperneck 12.2933 -17.652 10.6743
head 5.91405 -8.43612 3.43446
rclavicle -7.95139e-015 -1.74931e-014
rhumerus 16.7235 -7.45401 -76.757
rradius 22.2016
rwrist 36.9609
rhand -47.3116 -26.8506
rfingers 7.12502
rthumb -20.0068 -55.8406
lclavicle -7.95139e-015 -1.74931e-014
lhumerus 0.348107 -42.9653 92.601
lradius 96.8114
lwrist 42.7073
lhand -38.8382 19.9276
lfingers 7.12502
lthumb -11.8476 49.5724
rfemur -33.8309 19.8404 4.40129
rtibia 30.2078
rfoot -18.645 -23.4902
rtoes 2.80468
lfemur -29.2555 -9.62985 -21.3935
ltibia 12.9253
lfoot 0.324192 7.25559
ltoes -9.55684
257
root -0.912098 18.8679 -2.34156 -71.8981 -82.6498 90.0867
lowerback 14.8619 1.27444 2.9335
upperback 6.92641 1.7226 4.87808
thorax -1.05664 0.654543 3.19589
lowerneck -2.84106 -12.3804 -8.55024
upperneck 12.2823 -17.644 10.5025
head 5.87275 -8.43623 3.36415
rclavicle 6.36111e-015 -5.08889e-014
rhumerus 16.7187 -7.45214 -77.0889
rradius 22.1274
rwrist 37.2813
rhand -47.433 -26.174
rfingers 7.12502
rthumb -20.1235 -55.1518
lclavicle 6.36111e-015 -5.08889e-014
lhumerus -0.156995 -42.7723 92.413
lradius 97.4029
lwrist 42.7043
lhand -38.7633 20.0755
lfingers 7.12502
lthumb -11.7754 49.7245
rfemur -33.817 19.8132 4.18974
rtibia 30.3041
rfoot -18.749 -23.2473
rtoes 2.83949
lfemur -29.1505 -9.65498 -21.6594
ltibia 13.0907
lfoot -0.106585 7.62996
ltoes -8.00099
258
root -0.933755 18.8687 -2.31989 -74.8204 -82.6972 92.951
lowerback 14.84 1.39625 3.01829
upperback 6.95976 1.88583 4.86973
thorax -1.01206 0.73605 3.11443
lowerneck -2.63611 -12.3894 -8.31069
upperneck 12.2681 -17.6404 10.2039
head 5.78432 -8.44877 3.25668
rclavicle -1.59028e-014 6.36111e-015
rhumerus 16.6012 -7.17437 -77.3717
rradius 22.0974
rwrist 37.2985
rhand -47.5705 -25.8718
rfingers 7.12502
rthumb -20.2557 -54.8356
lclavicle -1.59028e-014 6.36111e-015
lhumerus -0.982646 -42.414 92.3689
lradius 98.1287
lwrist 42.6825
lhand -38.9452 20.2077
lfingers 7.12502
lthumb -11.9508 49.8466
rfemur -33.8086 19.9692 4.15911
rtibia 30.4034
rfoot -18.94 -23.0989
rtoes 3.35876
lfemur -29.0284 -9.65578 -21.7143
ltibia 13.2327
lfoot -0.476501 8.04803
ltoes -7.23275
259
root -0.958538 18.8695 -2.29964 -78.4659 -82.7185 96.4301
lowerback 14.9239 1.48682 2.98501
upperback 6.99157 1.99724 4.9271
thorax -1.02976 0.786592 3.17585
lowerneck -2.38804 -12.3087 -8.48172
upperneck 12.3777 -17.5329 10.0657
head 5.76864 -8.41933 3.26458
rclavicle -1.59028e-014 -3.33958e-014
rhumerus 16.3441 -6.1379 -77.4178
rradius 22.234
rwrist 36.8164
rhand -47.9111 -26.9305
rfingers 7.12502
rthumb -20.583 -55.8593
lclavicle -1.59028e-014 -3.33958e-014
lhumerus -2.11613 -41.6881 92.5359
lradius 98.9243
lwrist 42.6142
lhand -38.9359 20.4105
lfingers 7.12502
lthumb -11.9419 50.0499
rfemur -33.6867 20.1369 4.16902
rtibia 30.5164
rfoot -19.1783 -22.7978
rtoes 4.33103
lfemur -28.7489 -8.85708 -22.1425
ltibia 13.3362
lfoot -0.488188 7.71703
ltoes -8.19895
